<svg width="33" height="33" viewBox="0 0 33 33" fill="none" xmlns="http://www.w3.org/2000/svg">
<circle cx="16.5" cy="16.5" r="16" fill="#F05836"/>
<path fill-rule="evenodd" clip-rule="evenodd" d="M21.1668 22.5C22.6396 22.5 23.8335 21.3061 23.8335 19.8333V13.8485C23.8338 13.8383 23.8338 13.828 23.8335 13.8178V13.1667C23.8335 11.6939 22.6396 10.5 21.1668 10.5H11.8335C10.3608 10.5 9.16685 11.6939 9.16685 13.1667V13.8178C9.16661 13.828 9.16661 13.8383 9.16685 13.8485V19.8333C9.16685 21.3061 10.3608 22.5 11.8335 22.5H21.1668ZM10.5002 19.8333C10.5002 20.5697 11.0971 21.1667 11.8335 21.1667H21.1668C21.9032 21.1667 22.5002 20.5697 22.5002 19.8333V14.818L17.4906 16.8219C16.8548 17.0762 16.1456 17.0762 15.5098 16.8219L10.5002 14.818V19.8333ZM16.9954 15.5839L22.5002 13.382V13.1667C22.5002 12.4303 21.9032 11.8333 21.1668 11.8333H11.8335C11.0971 11.8333 10.5002 12.4303 10.5002 13.1667V13.382L16.005 15.5839C16.3229 15.7111 16.6775 15.7111 16.9954 15.5839Z" fill="white"/>
</svg>
