<svg width="33" height="33" viewBox="0 0 33 33" fill="none" xmlns="http://www.w3.org/2000/svg">
<circle cx="16.5" cy="16.5" r="16" fill="#F05836"/>
<path fill-rule="evenodd" clip-rule="evenodd" d="M16.5 12.1667C14.8431 12.1667 13.5 13.5099 13.5 15.1667C13.5 16.8236 14.8431 18.1667 16.5 18.1667C18.1568 18.1667 19.5 16.8236 19.5 15.1667C19.5 13.5099 18.1568 12.1667 16.5 12.1667ZM14.8333 15.1667C14.8333 14.2463 15.5795 13.5001 16.5 13.5001C17.4205 13.5001 18.1667 14.2463 18.1667 15.1667C18.1667 16.0872 17.4205 16.8334 16.5 16.8334C15.5795 16.8334 14.8333 16.0872 14.8333 15.1667Z" fill="white"/>
<path fill-rule="evenodd" clip-rule="evenodd" d="M13.7062 10.8947C15.398 9.76686 17.602 9.76686 19.2938 10.8947C21.5811 12.4196 22.2232 15.4967 20.7367 17.8091L18.1824 21.7826C17.3951 23.0072 15.6049 23.0072 14.8176 21.7826L12.2633 17.8091C10.7767 15.4968 11.4189 12.4196 13.7062 10.8947ZM14.4458 12.0041C15.6897 11.1748 17.3103 11.1748 18.5542 12.0041C20.236 13.1253 20.7082 15.3879 19.6152 17.0881L17.0608 21.0616C16.7984 21.4698 16.2016 21.4698 15.9392 21.0616L13.3848 17.0881C12.2918 15.3879 12.764 13.1253 14.4458 12.0041Z" fill="white"/>
</svg>
