<svg width="33" height="33" viewBox="0 0 33 33" fill="none" xmlns="http://www.w3.org/2000/svg">
<circle cx="16.5" cy="16.5" r="16" fill="#F05836"/>
<path fill-rule="evenodd" clip-rule="evenodd" d="M15.083 10.3716C14.0416 9.33023 12.3531 9.33023 11.3117 10.3716L10.9547 10.7286C10.4625 11.2209 10.1258 11.9585 10.3178 12.7576C10.6122 13.9826 11.4981 16.2149 14.1402 18.8569C16.7822 21.4989 19.0144 22.3848 20.2395 22.6792C21.0385 22.8713 21.7762 22.5346 22.2684 22.0424L22.6254 21.6853C23.6668 20.6439 23.6668 18.9555 22.6254 17.9141L22.0062 17.2948C21.1573 16.446 19.846 16.269 18.8024 16.8624L18.7381 16.899C18.3104 17.1421 17.8192 17.1222 17.4712 16.8704C17.1903 16.6671 16.922 16.4533 16.7329 16.2642C16.5438 16.0751 16.3299 15.8067 16.1267 15.5259C15.8748 15.1779 15.8549 14.6866 16.0981 14.259L16.1347 14.1946C16.7281 13.1511 16.5511 11.8397 15.7022 10.9909L15.083 10.3716ZM12.2545 11.3144C12.7752 10.7937 13.6195 10.7937 14.1402 11.3144L14.7594 11.9337C15.1838 12.3581 15.2723 13.0138 14.9756 13.5356L14.9391 13.5999C14.4691 14.4264 14.4526 15.4869 15.0465 16.3076C15.2647 16.609 15.5269 16.9438 15.7901 17.207C16.0533 17.4702 16.388 17.7324 16.6895 17.9505C17.5101 18.5444 18.5707 18.5279 19.3971 18.058L19.4615 18.0214C19.9833 17.7247 20.639 17.8132 21.0634 18.2377L21.6826 18.8569C22.2033 19.3776 22.2033 20.2218 21.6826 20.7425L21.3256 21.0995C21.0677 21.3574 20.7835 21.4387 20.551 21.3828C19.5717 21.1475 17.5561 20.3872 15.083 17.9141C12.6098 15.441 11.8496 13.4254 11.6142 12.446C11.5584 12.2136 11.6396 11.9294 11.8975 11.6715L12.2545 11.3144Z" fill="white"/>
</svg>
