<svg width="266" height="148" viewBox="0 0 266 148" fill="none" xmlns="http://www.w3.org/2000/svg">
<path d="M0.178376 25.3923C-0.474398 29.3541 2.20809 33.0949 6.16988 33.7477C10.1317 34.4005 13.8725 31.718 14.5253 27.7562C15.1781 23.7944 12.4956 20.0536 8.53378 19.4008C4.57199 18.748 0.83115 21.4305 0.178376 25.3923ZM111.038 7.46142L110.386 8.65859L111.038 7.46142ZM133.884 88.4648L134 87.1066L133.884 88.4648ZM187.911 42.3587L187.788 41.0011L187.911 42.3587ZM234.271 142.627L233.537 141.478L234.271 142.627ZM250.658 98.2998C250.005 102.262 252.687 106.002 256.649 106.655C260.611 107.308 264.352 104.626 265.005 100.664C265.657 96.7019 262.975 92.9611 259.013 92.3083C255.051 91.6556 251.311 94.338 250.658 98.2998ZM7.35183 26.5743C8.03205 27.7556 8.03205 27.7556 8.0323 27.7554C8.03273 27.7552 8.03323 27.7549 8.03409 27.7544C8.03579 27.7534 8.03851 27.7519 8.04225 27.7497C8.04974 27.7454 8.06128 27.7388 8.07685 27.7299C8.10798 27.7121 8.15518 27.6853 8.21807 27.6497C8.34386 27.5784 8.53242 27.4723 8.78074 27.3342C9.2774 27.058 10.013 26.654 10.9636 26.146C12.8648 25.13 15.6249 23.6982 19.0514 22.0406C25.9072 18.724 35.4175 14.5096 46.0455 10.9106C56.6801 7.30934 68.3902 4.33923 79.6551 3.48388C90.9303 2.62776 101.645 3.8988 110.386 8.65859L111.69 6.26425C102.315 1.15955 91.0113 -0.112548 79.4487 0.765393C67.8759 1.64411 55.929 4.68527 45.171 8.32834C34.4063 11.9736 24.7884 16.2367 17.8642 19.5864C14.4007 21.2619 11.6078 22.7105 9.67855 23.7416C8.71385 24.2571 7.96486 24.6684 7.45571 24.9515C7.20113 25.0931 7.00649 25.2027 6.87481 25.2772C6.80897 25.3145 6.75886 25.343 6.72487 25.3624C6.70788 25.3721 6.69491 25.3796 6.68601 25.3847C6.68157 25.3872 6.67814 25.3892 6.67574 25.3906C6.67454 25.3913 6.6735 25.3919 6.6729 25.3922C6.67213 25.3926 6.67161 25.3929 7.35183 26.5743ZM110.386 8.65859C118.516 13.0859 121.547 19.8062 122.123 27.6626C122.708 35.637 120.751 44.6443 118.911 53.4428C117.999 57.8035 117.119 62.1082 116.639 66.1183C116.16 70.1222 116.067 73.9293 116.783 77.2858C117.505 80.6739 119.06 83.6324 121.872 85.8408C124.66 88.0309 128.553 89.3798 133.769 89.8231L134 87.1066C129.111 86.6911 125.79 85.4518 123.556 83.6968C121.344 81.9599 120.067 79.6162 119.449 76.7173C118.824 73.7867 118.882 70.3222 119.346 66.4421C119.81 62.5681 120.664 58.3766 121.58 54.0009C123.394 45.327 125.461 35.9018 124.842 27.4632C124.214 18.9064 120.814 11.2327 111.69 6.26425L110.386 8.65859ZM133.769 89.8231C142.236 90.5427 148.065 88.0587 152.459 83.8034C156.764 79.635 159.621 73.8236 162.348 68.1044C167.904 56.4526 173.027 45.0695 188.033 43.7164L187.788 41.0011C171.016 42.5135 165.309 55.5587 159.887 66.9311C157.125 72.7242 154.457 78.0738 150.563 81.8448C146.759 85.5288 141.715 87.7623 134 87.1066L133.769 89.8231ZM188.033 43.7164C194.05 43.1739 198.549 44.6228 201.985 47.4223C205.459 50.2524 207.978 54.5704 209.789 59.9887C213.424 70.8619 214.039 85.6278 214.27 100.018C214.384 107.168 214.405 114.227 214.672 120.553C214.939 126.871 215.455 132.573 216.591 137.021C217.708 141.394 219.53 144.977 222.749 146.428C226.019 147.902 230.097 146.911 235.005 143.776L233.537 141.478C228.828 144.486 225.826 144.825 223.87 143.943C221.864 143.038 220.314 140.578 219.233 136.346C218.171 132.189 217.662 126.725 217.396 120.438C217.131 114.16 217.111 107.177 216.996 99.974C216.766 85.6556 216.165 70.4629 212.375 59.1245C210.474 53.437 207.73 48.5861 203.707 45.3086C199.646 42.0006 194.415 40.4035 187.788 41.0011L188.033 43.7164ZM235.005 143.776C244.33 137.82 250.351 126.686 254.03 117.265C255.881 112.523 257.165 108.147 257.986 104.956C258.397 103.36 258.692 102.058 258.886 101.152C258.982 100.699 259.054 100.345 259.101 100.102C259.125 99.9807 259.142 99.8873 259.154 99.8234C259.16 99.7914 259.165 99.7668 259.168 99.7498C259.17 99.7413 259.171 99.7347 259.172 99.73C259.172 99.7276 259.172 99.7258 259.173 99.7244C259.173 99.7237 259.173 99.723 259.173 99.7227C259.173 99.7221 259.173 99.7217 257.831 99.4818C256.489 99.2419 256.489 99.2417 256.489 99.2416C256.489 99.2418 256.489 99.2418 256.489 99.2421C256.489 99.2426 256.489 99.2436 256.489 99.2451C256.488 99.2481 256.487 99.253 256.486 99.2598C256.484 99.2734 256.48 99.2944 256.474 99.3228C256.464 99.3797 256.447 99.4658 256.425 99.5796C256.381 99.8073 256.313 100.146 256.22 100.582C256.033 101.456 255.746 102.721 255.346 104.277C254.544 107.39 253.292 111.658 251.49 116.274C247.861 125.568 242.102 136.008 233.537 141.478L235.005 143.776Z" fill="#EB5C3E"/>
</svg>
